<svg width="389" height="388" viewBox="0 0 389 388" fill="none" xmlns="http://www.w3.org/2000/svg">
<path fill-rule="evenodd" clip-rule="evenodd" d="M-90.852 184.332C-89.473 145.337 -38.3461 145.556 -38.412 184.441L-90.852 184.332ZM382.36 215.975C369.927 206.755 362.258 221.335 360.601 223.307L174.727 223.889L154.577 174.408L152.396 176.933C150.001 181.258 137.431 215.827 133.156 223.179L110.225 223.052C107.697 205.643 107.263 184.781 105.764 166.826L94.9843 27.4325C94.6987 23.6279 93.9597 3.55535 92.0478 0.472046L47.6126 315.9L35.5368 173.167C32.6305 177.237 22.0766 204.411 19.868 210.828C17.8023 208.635 15.0855 203.988 12.5061 203.057L7.24565 214.562C-0.503593 214.964 -8.84344 214.728 -16.6586 214.713C-24.3941 214.698 -31.6516 212.655 -38.4807 212.847C-47.3095 242.492 -88.311 243.423 -91.8464 198.77L-21.3285 198.738C-14.4418 131.629 -93.6237 120.458 -106.727 176.874C-113.526 206.146 -104.172 232.796 -84.9432 242.882C-74.9524 248.121 -59.2671 249.229 -47.6364 245.413C-38.5713 242.439 -27.4872 233.127 -24.9628 223.505L11.9485 223.466L14.4729 218.999C17.0468 220.102 19.662 224.891 21.7992 226.813L22.6425 225.509C25.7851 220.087 26.7932 212.981 30.0401 209.415C33.6936 219.369 42.3769 379.458 46.1292 387.263L90.3611 73.8565L102.846 231.98L138.628 231.888L153.654 196.039L155.363 197.99C155.841 198.758 155.94 199.125 156.314 199.976C157.091 201.738 157.454 202.838 158.242 204.801C160.725 211.015 167.65 229.216 170.136 232.781L360.708 232.302C362.912 239.554 368.71 245.945 378.539 242.989C388.906 239.87 392.563 223.549 382.355 215.978L382.36 215.975Z" fill="#F9EAED" stroke="#F9EAED" stroke-width="0.288" stroke-miterlimit="22.9256"/>
</svg>
