<svg width="972" height="1077" viewBox="0 0 972 1077" fill="none" xmlns="http://www.w3.org/2000/svg">
<path fill-rule="evenodd" clip-rule="evenodd" d="M-242.845 512.089C-239.005 403.546 -96.6354 404.155 -96.819 512.394L-242.845 512.089ZM1074.88 600.168C1040.26 574.503 1018.9 615.087 1014.29 620.575L496.695 622.196L440.587 484.466L434.513 491.493C427.843 503.532 392.84 599.757 380.937 620.221L317.08 619.867C310.043 571.409 308.834 513.34 304.658 463.36L274.642 75.3586C273.846 64.7684 271.788 8.89648 266.464 0.314087L142.728 878.31L109.102 481.01C101.009 492.341 71.6199 567.978 65.4698 585.842C59.7175 579.737 52.1523 566.801 44.9695 564.209L30.321 596.235C8.74219 597.354 -14.4813 596.695 -36.2437 596.654C-57.7843 596.613 -77.9939 590.927 -97.0102 591.462C-121.595 673.978 -235.77 676.57 -245.614 552.278L-49.2477 552.187C-30.0707 365.391 -250.564 334.295 -287.051 491.329C-305.983 572.808 -279.937 646.989 -226.392 675.064C-198.571 689.645 -154.893 692.731 -122.506 682.108C-97.2627 673.83 -66.3975 647.91 -59.3677 621.126L43.4167 621.019L50.4464 608.586C57.6138 611.655 64.8961 624.985 70.8474 630.334L73.1958 626.705C81.9466 611.614 84.7539 591.833 93.7954 581.909C103.969 609.614 128.149 1055.22 138.598 1076.95L261.768 204.58L296.534 644.718L396.175 644.462L438.017 544.675L442.775 550.106C444.106 552.245 444.381 553.266 445.421 555.635C447.586 560.54 448.596 563.6 450.791 569.064C457.706 586.361 476.99 637.024 483.913 646.947L1014.59 645.614C1020.72 665.799 1036.87 683.589 1064.24 675.361C1093.11 666.68 1103.29 621.25 1074.86 600.176L1074.88 600.168Z" fill="#F9EAED"/>
</svg>
