<svg xmlns="http://www.w3.org/2000/svg" width="736" height="712" viewBox="0 0 736 712" fill="red">
<g clip-path="url(#clip0_781_2829)">
<path fill-rule="evenodd" clip-rule="evenodd" d="M105.935 54.6378C98.1573 73.6795 101.046 150.949 102.842 175.964C145.157 180.503 340.093 173.973 407.605 175.594C555.532 179.136 520.927 315.405 477.87 338.39C409.089 375.117 233.671 340.743 199.553 365.679C172.843 385.199 180.621 457.501 180.621 499.137C180.621 526.856 177.156 627.306 182.163 646.728L334.296 646.933C340.551 627.501 336.209 513.221 336.697 483.199C448.613 470.56 539.762 490.773 610.905 422.687C715.551 322.53 713.56 56.18 436.824 52.5786C389.961 51.9735 132.538 49.4848 105.935 54.6478V54.6378Z" fill="#322F4D"/>
</g>
<defs>
<clipPath id="clip0_781_2829">
<rect width="738" height="1281" fill="white" transform="translate(-2 -317)"/>
</clipPath>
</defs>
</svg>