<svg width="24" height="24" viewBox="0 0 24 24" fill="none" xmlns="http://www.w3.org/2000/svg">
<path d="M19.0742 4.92582C15.1724 1.02473 8.82694 1.02473 4.92511 4.92582C1.02496 8.82691 1.02496 15.1742 4.92511 19.0752C6.87603 21.0254 9.43805 22 12.0001 22C14.5622 22 17.1233 21.0253 19.0742 19.0752C22.9753 15.1742 22.9753 8.82691 19.0742 4.92582ZM16.1262 14.9482C16.4522 15.2742 16.4522 15.8011 16.1262 16.1271C15.9636 16.2897 15.7502 16.3714 15.5367 16.3714C15.3233 16.3714 15.1098 16.2897 14.9473 16.1271L12.0001 13.179L9.05369 16.1263C8.89029 16.2888 8.67683 16.3706 8.46423 16.3706C8.25081 16.3706 8.03735 16.2888 7.87478 16.1263C7.5488 15.8003 7.5488 15.2725 7.87478 14.9474L10.8212 12.0001L7.87395 9.05284C7.54798 8.72686 7.54798 8.1991 7.87395 7.87394C8.19911 7.54796 8.72685 7.54796 9.05283 7.87394L12 10.8212L14.9472 7.87394C15.2732 7.54796 15.8001 7.54796 16.1261 7.87394C16.4521 8.1991 16.4521 8.72686 16.1261 9.05284L13.1789 12.0001L16.1262 14.9482Z" fill="#555158"/>
</svg>
