<svg width="24" height="24" viewBox="0 0 24 24" fill="red" xmlns="http://www.w3.org/2000/svg">
<path d="M19.2087 18.2914H4.80868C4.48712 18.2914 4.19006 18.1198 4.02923 17.8414C3.86851 17.563 3.86851 17.2198 4.02923 16.9414C4.19008 16.663 4.48711 16.4914 4.80868 16.4914H19.2087C19.5302 16.4914 19.8273 16.663 19.9881 16.9414C20.1488 17.2198 20.1488 17.563 19.9881 17.8414C19.8273 18.1198 19.5302 18.2914 19.2087 18.2914ZM20.1087 11.9914C20.1087 11.7527 20.0139 11.5237 19.8451 11.355C19.6764 11.1863 19.4473 11.0914 19.2087 11.0914H8.4087C8.08713 11.0914 7.79008 11.263 7.62924 11.5414C7.46853 11.8198 7.46853 12.163 7.62924 12.4414C7.79009 12.7198 8.08713 12.8914 8.4087 12.8914H19.2087C19.4474 12.8914 19.6764 12.7966 19.8451 12.6278C20.0138 12.4591 20.1087 12.2301 20.1087 11.9914V11.9914ZM20.1087 6.59139C20.1087 6.35273 20.0139 6.1237 19.8451 5.95498C19.6764 5.78626 19.4473 5.69141 19.2087 5.69141H12.0087C11.6871 5.69141 11.3901 5.86297 11.2292 6.14141C11.0685 6.41984 11.0685 6.76297 11.2292 7.04141C11.3901 7.31984 11.6871 7.49141 12.0087 7.49141H19.2087C19.4474 7.49141 19.6764 7.39659 19.8451 7.22784C20.0138 7.05908 20.1087 6.83005 20.1087 6.59142V6.59139Z" fill="white"/>
</svg>
