<svg width="32" height="32" viewBox="0 0 32 32" fill="none" xmlns="http://www.w3.org/2000/svg">
<g clip-path="url(#clip0_835_8279)">
<path d="M3.04906 20.0918C2.64993 20.6041 2.96591 20.9827 3.17379 21.108H0.263493C0.120288 21.0895 -0.119004 20.966 0.0694731 20.6208C0.25795 20.2756 2.71645 15.4376 3.92214 13.0618C4.02377 12.9133 4.1023 12.5356 3.60339 12.2126H5.52975L4.62894 16.5141L4.00531 17.7392H4.37949L4.00531 19.2983H4.71209L5.01698 17.7392H5.47432L5.26644 16.5141L6.08409 12.2126H7.65011C7.96054 12.2126 8.07511 12.6209 8.09359 12.8251L8.74494 20.6208L9.28542 21.1637H5.69605C5.35236 21.1637 5.26644 20.876 5.26644 20.7322V19.2983H4.71209H4.00531H3.5064L3.04906 20.0918Z" fill="#0E56AB"/>
<path d="M10.0447 21.1505H13.3708C12.9827 20.8052 12.9874 20.4219 13.0382 20.2734L13.8974 16.654C14.0305 16.2865 14.3316 16.1761 14.4656 16.1668C14.692 16.1807 15.2389 16.2002 15.6159 16.1668C15.9928 16.1334 16.2072 15.8373 16.2672 15.6935L16.6691 14.1204H15.5327C14.9895 14.1984 14.6412 14.784 14.5349 15.067H14.1192C14.4296 14.3432 14.0822 14.19 13.8697 14.2039H10.8485C11.2366 14.4267 11.2412 14.8257 11.195 14.9974C10.7885 16.7839 9.95602 20.4294 9.87842 20.7189C9.80081 21.0085 9.95695 21.1273 10.0447 21.1505Z" fill="#0E56AB"/>
<path d="M19.9854 12.1985H24.4062C24.3065 13.7911 23.8473 14.115 23.6301 14.0779H21.6899C21.2021 14.1001 20.9878 14.5976 20.9416 14.8435L20.1655 18.0036C19.8661 18.9279 20.4011 19.2054 20.706 19.2286H22.7848L23.4223 18.8945C23.1451 20.9659 22.5584 21.2239 22.2997 21.094H18.1976C16.4237 21.0606 16.3868 19.4096 16.59 18.5882C16.7471 17.7483 17.1748 15.6871 17.6294 14.1614C18.084 12.6357 19.3894 12.2171 19.9854 12.1985Z" fill="#0E56AB"/>
<path d="M28.119 16.724C28.0303 16.8911 27.9249 17.4711 27.8834 17.7402C27.3955 17.8627 27.2366 18.2646 27.2182 18.4502C26.8523 19.4859 27.2967 19.6613 27.5646 19.6196C27.7088 20.4214 26.9502 20.9652 26.553 21.1369H25.0146C24.5989 21.2251 23.8422 20.9281 24.1416 19.0349C24.4409 17.1416 25.5967 16.7054 26.1372 16.724H28.119Z" fill="#0E56AB"/>
<path d="M30.9339 14.2159H26.3882C26.3189 14.4804 26.1665 15.0901 26.1111 15.4131C26.0556 15.736 26.3189 15.7797 26.4575 15.7611H28.37C28.6583 15.7611 28.7396 16.1138 28.7442 16.2901L27.8572 20.6613C27.8572 21.0733 28.0882 21.1392 28.2037 21.1206H31.2526C30.8424 21.1206 30.8322 20.5731 30.8784 20.2993C31.2526 18.9722 32.001 16.1119 32.001 15.2878C32.001 14.4637 31.2896 14.2298 30.9339 14.2159Z" fill="#0E56AB"/>
</g>
<defs>
<clipPath id="clip0_835_8279">
<rect width="32" height="32" fill="white"/>
</clipPath>
</defs>
</svg>
