<svg width="164" height="64" viewBox="0 0 164 64" fill="none" xmlns="http://www.w3.org/2000/svg">
<path fill-rule="evenodd" clip-rule="evenodd" d="M0.436745 18.5671C0.0449674 19.5185 0.190475 23.3789 0.280923 24.6287C2.41235 24.8554 12.2314 24.5292 15.632 24.6102C23.0832 24.7872 21.3401 31.5953 19.1713 32.7437C15.7067 34.5786 6.87085 32.8612 5.15234 34.1071C3.80692 35.0823 4.1987 38.6946 4.1987 40.7747C4.1987 42.1596 4.02419 47.1782 4.27637 48.1485L11.9394 48.1588C12.2545 47.1879 12.0357 41.4784 12.0603 39.9785C17.6976 39.347 22.2888 40.3568 25.8723 36.9552C31.1434 31.9513 31.0431 18.6442 17.1038 18.4642C14.7433 18.434 1.77675 18.3097 0.436745 18.5676V18.5671Z" fill="#CF445E"/>
<path fill-rule="evenodd" clip-rule="evenodd" d="M77.1632 30.4051C77.41 23.9729 86.559 24.009 86.5472 30.4231L77.1632 30.4051ZM161.843 35.6245C159.618 34.1037 158.246 36.5086 157.95 36.8338L124.688 36.9299L121.082 28.7681L120.692 29.1846C120.263 29.898 118.014 35.6002 117.249 36.8129L113.145 36.7919C112.693 33.9203 112.615 30.4792 112.347 27.5174L110.418 4.52472C110.367 3.89715 110.235 0.586223 109.893 0.0776367L101.941 52.107L99.7801 28.5633C99.2601 29.2348 97.3715 33.717 96.9762 34.7756C96.6066 34.4138 96.1204 33.6473 95.6589 33.4937L94.7175 35.3915C93.3308 35.4578 91.8384 35.4188 90.4399 35.4163C89.0557 35.4139 87.7569 35.0769 86.5349 35.1086C84.955 39.9985 77.6179 40.1521 76.9853 32.7866L89.6042 32.7812C90.8366 21.7118 76.6672 19.8691 74.3224 29.1748C73.1058 34.0032 74.7796 38.3991 78.2206 40.0628C80.0084 40.9269 82.8152 41.1098 84.8965 40.4802C86.5187 39.9897 88.5021 38.4537 88.9539 36.8665L95.5591 36.8602L96.0108 36.1234C96.4714 36.3052 96.9394 37.0952 97.3218 37.4122L97.4727 37.1971C98.0351 36.3028 98.2155 35.1306 98.7965 34.5425C99.4503 36.1843 101.004 62.5908 101.676 63.8781L109.591 12.1823L111.825 38.2645L118.228 38.2494L120.917 32.336L121.223 32.6579C121.308 32.7847 121.326 32.8451 121.393 32.9856C121.532 33.2762 121.597 33.4576 121.738 33.7813C122.182 34.8063 123.422 37.8086 123.866 38.3967L157.969 38.3177C158.363 39.5138 159.401 40.568 161.16 40.0804C163.015 39.566 163.669 36.8738 161.842 35.625L161.843 35.6245Z" fill="white" stroke="white" stroke-width="0.288" stroke-miterlimit="22.9256"/>
<path fill-rule="evenodd" clip-rule="evenodd" d="M60.2906 35.0605L57.4906 35.4262C57.4872 37.2884 58.8842 39.0843 59.9932 39.7733C62.6127 41.4015 68.2362 41.4064 70.4655 38.5119C71.6108 37.0246 71.9869 34.7684 70.8243 33.0823C68.9308 30.3365 62.652 30.5305 61.1287 28.8965C60.1244 27.8199 60.6784 25.7987 63.7246 25.6178C67.49 25.3935 67.4886 27.2245 68.1566 28.2836L70.7767 27.9857C70.8858 26.064 69.4076 24.5148 67.9457 23.9199C66.3093 23.2538 63.995 23.0085 62.0135 23.4771C57.9492 24.4382 56.2936 28.9648 59.5286 31.459C60.7949 32.4352 62.7764 32.8077 64.5569 33.2909C66.2262 33.7444 68.8335 33.9902 68.515 36.2157C68.0922 39.1672 60.9512 39.8894 60.2901 35.0605H60.2906Z" fill="white" stroke="white" stroke-width="0.288" stroke-miterlimit="22.9256"/>
<path fill-rule="evenodd" clip-rule="evenodd" d="M33.0255 23.6411C32.7536 25.3848 32.9797 29.3633 32.9797 31.3464C32.9797 33.7318 32.6986 36.5322 33.7255 38.3632C35.2036 40.9983 39.6061 41.5918 42.2261 39.9202C43.251 39.2663 43.4132 38.7158 44.183 38.1799L44.2037 40.4771L46.7362 40.4863C46.8483 38.5749 46.9446 24.6027 46.6507 23.6172L43.9574 23.6035C42.9222 28.7401 46.2417 37.8357 39.8179 38.3667C33.3986 38.8972 36.9113 29.454 35.8004 23.6118L33.025 23.6411H33.0255Z" fill="white" stroke="white" stroke-width="0.288" stroke-miterlimit="22.9256"/>
<path fill-rule="evenodd" clip-rule="evenodd" d="M51.2454 40.483L54.0959 40.4577L54.0738 17.2085L51.2188 17.2144L51.2454 40.483Z" fill="white" stroke="white" stroke-width="0.288" stroke-miterlimit="22.9256"/>
<path fill-rule="evenodd" clip-rule="evenodd" d="M68.1571 48.9185C68.6354 48.723 68.4968 49.0823 68.5209 48.1051C68.5337 47.5961 68.4654 47.54 68.5592 46.9836C69.5001 48.3792 69.3718 48.9375 70.4267 48.88C70.4272 48.2914 70.4238 47.698 70.4331 47.1099C70.4513 45.8957 70.5334 45.7065 70.1234 45.7007C69.6569 45.8723 69.8157 45.6631 69.7803 46.4414C69.7646 46.7861 69.7926 47.2459 69.7896 47.6087C68.9751 46.8992 69.0783 45.6197 67.9173 45.7431C67.8484 46.3258 67.8794 46.8534 67.873 47.4395C67.8711 47.6282 67.8416 48.2782 67.8627 48.4162C67.9654 49.0945 67.7138 48.6566 68.1571 48.918V48.9185Z" fill="white" stroke="white" stroke-width="0.288" stroke-miterlimit="22.9256"/>
<path fill-rule="evenodd" clip-rule="evenodd" d="M55.0485 48.9195C55.8999 48.581 55.168 48.8526 55.458 47.0056C56.4234 48.5206 56.3551 48.9224 57.3318 48.8873C57.3318 48.2953 57.3255 47.7028 57.3363 47.1109C57.3672 45.4022 57.3663 45.9406 57.0148 45.7012C56.4239 46.1074 56.7302 45.8962 56.6918 47.6175C55.7539 46.7842 55.9864 45.5954 54.8141 45.748C54.7482 46.3087 54.7791 46.8705 54.7747 47.4405C54.7605 49.1501 54.7103 48.7015 55.0485 48.9195Z" fill="white" stroke="white" stroke-width="0.288" stroke-miterlimit="22.9256"/>
<path fill-rule="evenodd" clip-rule="evenodd" d="M45.0472 47.0729C44.2705 47.0208 44.6028 47.0622 44.5379 46.4634C45.6459 45.7466 45.7717 46.6243 45.7727 46.6258C45.6572 46.8506 45.8125 47.1241 45.0472 47.0729ZM45.759 47.5279C46.3356 47.2417 46.8497 46.5985 46.2097 45.9738C45.7727 45.5472 44.6578 45.7056 43.9461 45.6857C43.7956 46.3088 43.8586 46.7955 43.8502 47.4396C43.831 48.9659 43.7917 48.7513 44.2336 48.9151C44.6923 48.6509 44.4194 49.0965 44.532 48.4163C44.5507 48.3047 44.5246 47.7571 44.5241 47.601C46.0735 47.7878 45.0157 48.9693 46.6752 48.8849C46.4722 48.3666 46.2141 47.9731 45.758 47.5274L45.759 47.5279Z" fill="white" stroke="white" stroke-width="0.288" stroke-miterlimit="22.9256"/>
<path fill-rule="evenodd" clip-rule="evenodd" d="M53.5291 48.0679C52.0244 48.9285 51.549 47.6037 52.2648 46.2705L53.3639 46.3544C53.7498 47.0863 53.7198 47.176 53.5291 48.0679ZM51.29 47.7636C51.6095 49.5668 54.8568 49.401 54.2669 46.7884C53.8692 45.0261 50.8471 45.2631 51.29 47.7636Z" fill="white" stroke="white" stroke-width="0.288" stroke-miterlimit="22.9256"/>
<path fill-rule="evenodd" clip-rule="evenodd" d="M39.2439 46.2794C39.7237 47.0757 39.8446 48.8287 38.3606 48.2884C37.87 48.1099 37.7579 47.398 37.9132 46.8412C38.072 46.2716 38.5139 46.2185 39.2439 46.2794ZM40.2162 47.7632C40.8135 45.4256 37.7343 44.9658 37.2594 46.7017C36.5978 49.1193 39.6961 49.8 40.2162 47.7632Z" fill="white" stroke="white" stroke-width="0.288" stroke-miterlimit="22.9256"/>
<path fill-rule="evenodd" clip-rule="evenodd" d="M62.4544 46.2886C63.907 46.1925 64.0029 46.8567 63.6622 48.2318L62.4687 48.3473L62.4549 46.2886H62.4544ZM61.808 48.853C63.3265 49.0373 64.4989 48.9671 64.4704 47.2745C64.4428 45.6298 63.3889 45.6484 61.8174 45.7235L61.808 48.853Z" fill="white" stroke="white" stroke-width="0.288" stroke-miterlimit="22.9256"/>
<path fill-rule="evenodd" clip-rule="evenodd" d="M74.8381 46.6257C75.1351 46.297 74.3623 46.3409 75.693 46.2585C76.5041 46.2083 76.2298 46.5067 76.5385 45.9757C76.215 45.4798 75.6487 45.7051 74.2144 45.707L74.1957 48.9053C74.643 48.9019 75.0928 48.9121 75.5372 48.9087C75.7338 48.9073 75.9924 48.9048 76.1826 48.8746C76.7184 48.7897 76.4485 48.8166 76.6088 48.7385C76.3414 48.2465 77.1613 48.3772 74.8672 48.3611L74.9178 47.4961C75.0721 47.4951 75.7879 47.519 75.8695 47.5024C76.4107 47.3932 76.2047 47.5731 76.4102 47.1133C76.2145 47.0104 76.4038 47.0538 76.0032 46.9885C74.5177 46.7471 75.1562 47.2577 74.8381 46.6257Z" fill="white" stroke="white" stroke-width="0.288" stroke-miterlimit="22.9256"/>
<path fill-rule="evenodd" clip-rule="evenodd" d="M65.5981 46.7886C65.693 46.1903 65.4413 46.2858 66.3448 46.2503C66.8983 46.2288 66.858 46.3668 67.3132 46.1381C67.1933 45.6822 67.4356 45.9148 67.0055 45.7402L64.9729 45.7217L64.9611 48.9053C65.6438 48.899 66.83 49.0292 67.3845 48.7391C67.0099 47.9399 67.2247 48.5796 65.6178 48.3046L65.6202 47.5478C67.7428 47.2294 66.9136 47.8531 67.206 47.1133C66.4834 46.7286 66.1949 47.2089 65.5976 46.7881L65.5981 46.7886Z" fill="white" stroke="white" stroke-width="0.288" stroke-miterlimit="22.9256"/>
<path fill-rule="evenodd" clip-rule="evenodd" d="M40.9034 48.4584C41.3168 49.0011 42.4184 49.2259 42.9778 48.6208C43.429 48.1327 43.516 45.0236 42.7433 45.7692C42.09 46.3987 43.4954 48.751 41.5621 48.2999C40.9461 46.9204 41.8383 46.148 40.9574 45.7189C40.5258 46.308 40.6399 47.8698 40.9039 48.4584H40.9034Z" fill="white" stroke="white" stroke-width="0.288" stroke-miterlimit="22.9256"/>
<path fill-rule="evenodd" clip-rule="evenodd" d="M50.8384 47.8598C49.4566 47.8534 50.6255 47.8973 49.8444 48.2972C49.5308 48.4576 49.3076 48.4498 49.0461 48.1977C48.6145 47.7823 48.8274 46.829 49.0348 46.3657C50.5552 45.9678 49.5337 46.6754 50.7907 46.6427C50.6678 45.2652 48.9271 45.5407 48.4253 46.2316C47.5178 47.4799 48.5668 48.4917 48.9222 48.8969C50.0872 48.9676 50.6004 48.9701 50.8384 47.8603V47.8598Z" fill="white" stroke="white" stroke-width="0.288" stroke-miterlimit="22.9256"/>
<path fill-rule="evenodd" clip-rule="evenodd" d="M71.9844 48.3261C71.4953 47.7166 71.3945 47.0583 71.9254 46.3415C73.4153 46.0173 72.2887 46.6839 73.5894 46.6331C73.4242 45.2117 71.4427 45.4394 71.048 46.5654C70.2487 48.8464 73.2482 49.9211 73.6233 47.8649C72.3973 47.8727 73.205 48.588 71.9839 48.3261H71.9844Z" fill="white" stroke="white" stroke-width="0.288" stroke-miterlimit="22.9256"/>
<path fill-rule="evenodd" clip-rule="evenodd" d="M58.6021 46.6256C58.984 46.2013 58.1429 46.3764 59.4751 46.2715C60.2763 46.2081 59.8865 46.4339 60.1357 45.9751C59.8334 45.4787 58.5627 45.6401 57.9257 45.7654L57.9994 48.8988L58.5962 48.8418V47.5725C59.4726 47.5691 59.8334 47.8334 59.9131 47.1127C59.4244 46.8567 59.5699 47.0824 59.1393 46.9956C58.6202 46.8908 58.7962 47.0512 58.6016 46.6251L58.6021 46.6256Z" fill="white" stroke="white" stroke-width="0.288" stroke-miterlimit="22.9256"/>
<path fill-rule="evenodd" clip-rule="evenodd" d="M34.2037 45.7446C34.4455 46.4838 34.7434 46.6189 35.0654 47.2601C35.3485 47.8248 35.175 47.6361 35.2222 48.2612C35.2935 49.2135 35.0919 48.702 35.5501 48.9029C36.0682 48.6937 35.8367 49.0214 35.8917 48.0954C35.9713 46.7481 36.4093 47.1889 36.9269 45.7324C35.6582 45.7783 36.4255 45.9996 35.5501 46.8149C34.6127 45.6554 35.3662 45.7315 34.2042 45.7441L34.2037 45.7446Z" fill="white" stroke="white" stroke-width="0.288" stroke-miterlimit="22.9256"/>
<path fill-rule="evenodd" clip-rule="evenodd" d="M60.5801 48.9107L61.2364 48.8571L61.1877 45.7192L60.6013 45.707L60.5801 48.9107Z" fill="white" stroke="white" stroke-width="0.288" stroke-miterlimit="22.9256"/>
<path fill-rule="evenodd" clip-rule="evenodd" d="M78.8437 48.3633C78.3237 47.8289 78.3075 48.5993 78.2863 48.9197C78.596 48.8978 79.3147 48.8475 78.8437 48.3633Z" fill="white" stroke="white" stroke-width="0.288" stroke-miterlimit="22.9256"/>
<path fill-rule="evenodd" clip-rule="evenodd" d="M80.1573 48.7386C80.0157 48.0666 80.3239 48.3241 79.6274 48.2924C79.3737 48.7273 79.5079 48.6391 79.6274 48.8834C79.7031 48.8819 79.766 49.0097 80.1573 48.7386Z" fill="white" stroke="white" stroke-width="0.288" stroke-miterlimit="22.9256"/>
</svg>
