<svg width="32" height="32" viewBox="0 0 32 32" fill="none" xmlns="http://www.w3.org/2000/svg">
<path d="M19.2965 9.90009H12.6826V22.0981H19.2965V9.90009Z" fill="#FF5F00"/>
<path d="M13.1035 15.9998C13.1025 14.8251 13.3619 13.6655 13.862 12.6088C14.3622 11.5521 15.0901 10.6261 15.9905 9.90082C14.8755 9.00129 13.5363 8.44189 12.1261 8.28655C10.7159 8.13121 9.29157 8.3862 8.0159 9.02237C6.74024 9.65855 5.6647 10.6502 4.91224 11.8841C4.15977 13.118 3.76074 14.5442 3.76074 15.9998C3.76074 17.4554 4.15977 18.8817 4.91224 20.1155C5.6647 21.3494 6.74024 22.3411 8.0159 22.9772C9.29157 23.6134 10.7159 23.8684 12.1261 23.7131C13.5363 23.5577 14.8755 22.9983 15.9905 22.0988C15.0901 21.3735 14.3622 20.4475 13.8621 19.3908C13.3619 18.3342 13.1025 17.1746 13.1035 15.9998Z" fill="#EB001B"/>
<path d="M28.2196 15.9998C28.2197 17.4554 27.8207 18.8816 27.0683 20.1155C26.3159 21.3494 25.2404 22.341 23.9647 22.9772C22.6891 23.6134 21.2648 23.8684 19.8546 23.7131C18.4444 23.5577 17.1053 22.9983 15.9902 22.0988C16.8899 21.3728 17.6172 20.4466 18.1173 19.3901C18.6174 18.3336 18.8772 17.1744 18.8772 15.9998C18.8772 14.8252 18.6174 13.666 18.1173 12.6095C17.6172 11.553 16.8899 10.6268 15.9902 9.90082C17.1053 9.00129 18.4444 8.44189 19.8546 8.28655C21.2648 8.13121 22.6891 8.38621 23.9647 9.02239C25.2404 9.65857 26.3159 10.6503 27.0683 11.8841C27.8207 13.118 28.2197 14.5442 28.2196 15.9998Z" fill="#F79E1B"/>
<path d="M27.4984 20.8074V20.5577H27.5966V20.5068H27.3467V20.5577H27.4448V20.8074H27.4984ZM27.9836 20.8074V20.5063H27.907L27.8189 20.7134L27.7307 20.5063H27.6541V20.8074H27.7082V20.5803L27.7908 20.7761H27.8469L27.9295 20.5798V20.8074H27.9836Z" fill="#F79E1B"/>
</svg>
