<svg width="140" height="42" viewBox="0 0 140 42" fill="none" xmlns="http://www.w3.org/2000/svg">
<g clip-path="url(#clip0_946_748)">
<path d="M48.8906 31.0328H51.4906V14.5328H48.8906V31.0328ZM50.1906 8.33276C51.1906 8.33276 51.9906 9.13276 51.9906 10.1328C51.9906 11.1328 51.1906 11.9328 50.1906 11.9328C49.1906 11.9328 48.3906 11.1328 48.3906 10.1328C48.3906 9.13276 49.1906 8.33276 50.1906 8.33276Z" fill="#0C0710"/>
<path d="M69.7908 8.33276V16.5328C68.1908 15.0328 65.9908 14.1328 63.7908 14.1328C59.0908 14.1328 55.0908 17.9328 55.0908 22.7328C55.0908 27.5328 58.9908 31.4328 63.7908 31.4328C65.9908 31.4328 68.1908 30.5328 69.7908 29.0328V31.0328H72.3908V8.33276H69.7908ZM63.7908 28.8328C60.4908 28.8328 57.7908 26.1328 57.7908 22.8328C57.7908 19.5328 60.3908 16.9328 63.6908 16.8328H63.7908C67.0908 16.8328 69.7908 19.5328 69.7908 22.8328C69.7908 26.1328 67.0908 28.8328 63.7908 28.8328Z" fill="#0C0710"/>
<path d="M85.1908 14.1328C82.9908 14.1328 80.7908 15.0328 79.1908 16.5328V14.5328H76.5908V30.9328H79.1908V22.7328C79.1908 19.4328 81.8908 16.7328 85.1908 16.7328V14.1328Z" fill="#0C0710"/>
<path d="M101.191 14.5327V16.4327C99.5906 14.9327 97.3906 14.0327 95.1906 14.0327C90.6906 14.2327 87.0906 17.8327 86.8906 22.3327C86.6906 27.1327 90.3906 31.1327 95.1906 31.3327C97.3906 31.3327 99.5906 30.4327 101.191 28.9327V30.9327H103.891V14.5327H101.191ZM95.1906 28.8327C91.8906 28.8327 89.1906 26.1327 89.1906 22.8327C89.2906 19.5327 91.8906 16.8327 95.1906 16.8327C98.4906 16.8327 101.191 19.5327 101.191 22.8327C101.191 26.1327 98.4906 28.8327 95.1906 28.8327Z" fill="#0C0710"/>
<path d="M110.591 14.5328H107.891V30.9328H110.491V22.7328C110.491 19.4328 113.191 16.7328 116.491 16.7328C119.791 16.7328 122.491 19.4328 122.491 22.7328V30.9328H125.191V22.7328C125.191 19.4328 127.891 16.7328 131.191 16.7328C134.491 16.7328 137.191 19.4328 137.191 22.7328V30.9328H139.791V22.7328C139.791 17.9328 135.891 14.1328 131.191 14.1328C128.191 14.1328 125.491 15.6328 123.891 18.1328C122.291 15.6328 119.591 14.1328 116.591 14.1328C114.391 14.1328 112.191 14.9328 110.591 16.5328V14.5328Z" fill="#0C0710"/>
<path d="M8.2998 1.99646C3.9998 4.29646 1.2998 8.59646 0.899805 13.3965V17.2965C1.0998 17.8965 1.6998 18.3965 2.3998 18.3965C3.1998 18.3965 3.8998 17.6965 3.8998 16.8965V14.8965C3.8998 10.5965 6.0998 6.69646 9.8998 4.59646C13.5998 2.39646 18.1998 2.39646 21.7998 4.59646L23.5998 5.59646C24.2998 5.99646 25.1998 5.79646 25.5998 5.09646C25.9998 4.39646 25.7998 3.49646 25.0998 3.09646L23.2998 2.09646C20.9998 0.69646 18.3998 -0.00353989 15.7998 -0.00353989C13.1998 -0.10354 10.5998 0.59646 8.2998 1.99646ZM27.8998 6.59646C27.4998 7.29646 27.7998 8.19646 28.4998 8.59646L30.1998 9.59646C33.8998 11.6965 36.1998 15.5965 36.1998 19.8965C36.2998 24.1965 33.9998 28.0965 30.1998 30.1965L21.5998 35.1965C17.8998 37.3965 13.2998 37.3965 9.5998 35.1965C5.89981 33.0965 3.5998 29.1965 3.6998 24.8965V22.8965C3.6998 22.0965 2.9998 21.3965 2.1998 21.3965C1.4998 21.3965 0.899805 21.8965 0.799805 22.4965V26.2965C1.1998 31.0965 3.8998 35.3965 8.1998 37.6965C12.7998 40.3965 18.4998 40.3965 23.0998 37.6965L31.7998 32.6965C36.4998 30.0965 39.3998 25.1965 39.2998 19.7965C39.3998 14.4965 36.4998 9.49646 31.7998 6.89646L30.0998 5.89646L29.9998 5.79646C29.6998 5.79646 29.4998 5.79646 29.1998 5.79646C28.6998 5.79646 28.1998 6.09646 27.8998 6.59646ZM11.2998 7.19646C8.4998 8.79646 6.7998 11.6965 6.7998 14.8965V24.8965C6.6998 28.0965 8.4998 31.0965 11.2998 32.5965C13.9998 34.1965 17.4998 34.1965 20.1998 32.5965L21.9998 31.5965C22.6998 31.1965 22.8998 30.2965 22.4998 29.5965C22.0998 28.8965 21.1998 28.5965 20.4998 28.9965L18.7998 29.9965C16.8998 31.0965 14.6998 31.0965 12.7998 29.9965C10.8998 28.9965 9.7998 26.9965 9.7998 24.7965V14.7965C9.7998 12.6965 10.8998 10.6965 12.7998 9.59646C14.5998 8.49646 16.8998 8.49646 18.7998 9.59646L27.3998 14.5965C29.2998 15.5965 30.3998 17.5965 30.3998 19.7965C30.3998 21.8965 29.2998 23.8965 27.3998 24.9965L25.5998 25.9965C24.8998 26.3965 24.6998 27.3965 25.1998 27.9965C25.5998 28.5965 26.3998 28.8965 27.0998 28.4965L28.7998 27.4965C31.5998 25.8965 33.2998 22.9965 33.2998 19.7965C33.3998 16.5965 31.5998 13.5965 28.7998 12.0965L20.1998 7.09646C18.7998 6.29646 17.2998 5.89646 15.6998 5.89646C14.1998 5.99646 12.6998 6.39646 11.2998 7.19646ZM13.0998 13.4965C12.7998 13.8965 12.6998 14.3965 12.6998 14.8965V16.8965C12.7998 17.6965 13.4998 18.2965 14.2998 18.1965C14.9998 18.0965 15.5998 17.5965 15.5998 16.8965V15.4965C15.5998 15.3965 15.6998 15.2965 15.7998 15.1965C15.8998 15.1965 15.9998 15.1965 16.1998 15.1965L19.9998 17.3965L23.7998 19.5965C23.8998 19.5965 23.9998 19.7965 23.9998 19.8965C23.9998 19.9965 23.8998 20.1965 23.7998 20.1965L19.9998 22.3965L16.1998 24.5965C16.0998 24.6965 15.8998 24.6965 15.7998 24.5965C15.6998 24.5965 15.5998 24.3965 15.5998 24.2965V22.8965C15.4998 22.0965 14.7998 21.4965 13.9998 21.5965C13.2998 21.6965 12.6998 22.1965 12.6998 22.8965V24.8965C12.6998 25.9965 13.2998 26.8965 14.1998 27.3965C15.0998 27.8965 16.1998 27.8965 17.1998 27.3965L25.7998 22.3965C26.6998 21.8965 27.2998 20.8965 27.2998 19.8965C27.2998 18.7965 26.6998 17.8965 25.7998 17.3965L17.1998 12.3965C16.6998 12.0965 16.1998 11.9965 15.6998 11.9965C14.6998 11.9965 13.6998 12.4965 13.0998 13.4965Z" fill="#F5821E"/>
</g>
<defs>
<clipPath id="clip0_946_748">
<rect width="140" height="42" fill="white"/>
</clipPath>
</defs>
</svg>
