<svg width="36" height="36" viewBox="0 0 36 36" fill="none" xmlns="http://www.w3.org/2000/svg">
<path d="M17.9996 1.33268C27.1912 1.33268 34.6662 8.80935 34.6662 17.9993C34.6662 27.1893 27.1912 34.666 17.9996 34.666C8.80955 34.666 1.33289 27.1893 1.33289 17.9993C1.33289 8.80935 8.80955 1.33268 17.9996 1.33268Z" fill="white"/>
<path d="M17.9996 1.33268C27.1912 1.33268 34.6662 8.80935 34.6662 17.9993C34.6662 27.1893 27.1912 34.666 17.9996 34.666C8.80955 34.666 1.33289 27.1893 1.33289 17.9993C1.33289 8.80935 8.80955 1.33268 17.9996 1.33268" stroke="#ECC1C9"/>
<path d="M15.5953 10.9649C15.9136 10.9649 16.2336 11.0865 16.4769 11.3299L22.2886 17.1132C22.5236 17.3482 22.6553 17.6665 22.6553 17.9999C22.6553 18.3315 22.5236 18.6499 22.2886 18.8849L16.4769 24.6715C15.9886 25.1582 15.1986 25.1582 14.7103 24.6682C14.2236 24.1782 14.2253 23.3865 14.7136 22.8999L19.6353 17.9999L14.7136 13.0999C14.2253 12.6132 14.2236 11.8232 14.7103 11.3332C14.9536 11.0865 15.2753 10.9649 15.5953 10.9649Z" fill="#CF445E"/>
</svg>
