<svg width="36" height="36" viewBox="0 0 36 36" fill="none" xmlns="http://www.w3.org/2000/svg">
<path d="M17.9996 1.33268C27.1912 1.33268 34.6662 8.80935 34.6662 17.9993C34.6662 27.1893 27.1912 34.666 17.9996 34.666C8.80955 34.666 1.33289 27.1893 1.33289 17.9993C1.33289 8.80935 8.80955 1.33268 17.9996 1.33268Z" fill="white"/>
<path d="M17.9996 1.33268C27.1912 1.33268 34.6662 8.80935 34.6662 17.9993C34.6662 27.1893 27.1912 34.666 17.9996 34.666C8.80955 34.666 1.33289 27.1893 1.33289 17.9993C1.33289 8.80935 8.80955 1.33268 17.9996 1.33268" stroke="#ECC1C9"/>
<path d="M21.0368 11.0713C20.7185 11.0713 20.3985 11.193 20.1551 11.4363L14.3435 17.2197C14.1085 17.4547 13.9768 17.773 13.9768 18.1063C13.9768 18.438 14.1085 18.7563 14.3435 18.9913L20.1551 24.778C20.6435 25.2647 21.4335 25.2647 21.9218 24.7747C22.4085 24.2847 22.4068 23.493 21.9185 23.0063L16.9968 18.1063L21.9185 13.2063C22.4068 12.7197 22.4085 11.9297 21.9218 11.4397C21.6785 11.193 21.3568 11.0713 21.0368 11.0713Z" fill="#CF445E"/>
</svg>
