<svg width="32" height="32" viewBox="0 0 32 32" fill="none" xmlns="http://www.w3.org/2000/svg">
<g clip-path="url(#clip0_835_8262)">
<path d="M11.7324 20.596L13.3578 11.4531H15.8975L14.3229 20.596H11.7324Z" fill="#3C58BF"/>
<path d="M11.7324 20.596L13.815 11.4531H15.8975L14.3229 20.596H11.7324Z" fill="#293688"/>
<path d="M23.5165 11.5548C23.0086 11.3516 22.1959 11.1484 21.18 11.1484C18.6404 11.1484 16.8118 12.4183 16.8118 14.2469C16.8118 15.6183 18.0816 16.3294 19.0975 16.7865C20.1134 17.2437 20.4181 17.5484 20.4181 17.9548C20.4181 18.5643 19.6054 18.8691 18.8943 18.8691C17.8784 18.8691 17.3197 18.7167 16.4562 18.3611L16.1007 18.2088L15.7451 20.2913C16.3546 20.5453 17.4721 20.7992 18.6404 20.7992C21.3324 20.7992 23.1102 19.5294 23.1102 17.5992C23.1102 16.5326 22.4499 15.7199 20.9261 15.0595C20.0118 14.6024 19.4531 14.3484 19.4531 13.8913C19.4531 13.4849 19.9102 13.0786 20.9261 13.0786C21.7896 13.0786 22.3991 13.231 22.8562 13.4342L23.1102 13.5357L23.5165 11.5548Z" fill="#3C58BF"/>
<path d="M23.5165 11.5548C23.0086 11.3516 22.1959 11.1484 21.18 11.1484C18.6404 11.1484 17.2689 12.4183 17.2689 14.2469C17.2689 15.6183 18.0816 16.3294 19.0975 16.7865C20.1134 17.2437 20.4181 17.5484 20.4181 17.9548C20.4181 18.5643 19.6054 18.8691 18.8943 18.8691C17.8784 18.8691 17.3197 18.7167 16.4562 18.3611L16.1007 18.2088L15.7451 20.2913C16.3546 20.5453 17.4721 20.7992 18.6404 20.7992C21.3324 20.7992 23.1102 19.5294 23.1102 17.5992C23.1102 16.5326 22.4499 15.7199 20.9261 15.0595C20.0118 14.6024 19.4531 14.3484 19.4531 13.8913C19.4531 13.4849 19.9102 13.0786 20.9261 13.0786C21.7896 13.0786 22.3991 13.231 22.8562 13.4342L23.1102 13.5357L23.5165 11.5548Z" fill="#293688"/>
<path d="M27.886 11.4531C27.2765 11.4531 26.8193 11.5039 26.5654 12.1134L22.7559 20.596H25.4987L26.0067 19.0722H29.2574L29.5622 20.596H32.0003L29.867 11.4531H27.886ZM26.7178 17.5484C26.8701 17.0912 27.7336 14.8563 27.7336 14.8563C27.7336 14.8563 27.9368 14.2976 28.0892 13.942L28.2416 14.8055C28.2416 14.8055 28.7495 17.0912 28.8511 17.5992H26.7178V17.5484Z" fill="#3C58BF"/>
<path d="M28.4955 11.4531C27.886 11.4531 27.4289 11.5039 27.1749 12.1134L22.7559 20.596H25.4987L26.0067 19.0722H29.2574L29.5622 20.596H32.0003L29.867 11.4531H28.4955ZM26.7178 17.5484C26.9209 17.0404 27.7336 14.8563 27.7336 14.8563C27.7336 14.8563 27.9368 14.2976 28.0892 13.942L28.2416 14.8055C28.2416 14.8055 28.7495 17.0912 28.8511 17.5992H26.7178V17.5484Z" fill="#293688"/>
<path d="M7.06148 17.8538L6.80751 16.5332C6.35037 15.0094 4.87735 13.3332 3.25195 12.5205L5.53767 20.6475H8.28053L12.3948 11.5046H9.65196L7.06148 17.8538Z" fill="#3C58BF"/>
<path d="M7.06148 17.8538L6.80751 16.5332C6.35037 15.0094 4.87735 13.3332 3.25195 12.5205L5.53767 20.6475H8.28053L12.3948 11.5046H10.1599L7.06148 17.8538Z" fill="#293688"/>
<path d="M0 11.4531L0.457143 11.5547C3.70794 12.3166 5.94286 14.2468 6.80635 16.5325L5.89206 12.215C5.73968 11.6055 5.28254 11.4531 4.72381 11.4531H0Z" fill="#FFBC00"/>
<path d="M0 11.4531C3.25079 12.215 5.94286 14.196 6.80635 16.4817L5.94286 12.8753C5.79048 12.2658 5.28254 11.9103 4.72381 11.9103L0 11.4531Z" fill="#F7981D"/>
<path d="M0 11.4531C3.25079 12.215 5.94286 14.196 6.80635 16.4817L6.19683 14.5007C6.04444 13.8912 5.84127 13.2817 5.13016 13.0277L0 11.4531Z" fill="#ED7C00"/>
<path d="M9.60017 17.5481L7.87319 15.8211L7.06049 17.7513L6.85731 16.4814C6.40017 14.9576 4.92716 13.2814 3.30176 12.4688L5.58747 20.5957H8.33033L9.60017 17.5481Z" fill="#051244"/>
<path d="M14.3229 20.596L12.1388 18.3611L11.7324 20.596H14.3229Z" fill="#051244"/>
<path d="M20.1651 17.447C20.3683 17.6502 20.4699 17.8026 20.4191 18.0058C20.4191 18.6153 19.6064 18.92 18.8953 18.92C17.8794 18.92 17.3207 18.7677 16.4572 18.4121L16.1016 18.2597L15.7461 20.3423C16.3556 20.5962 17.4731 20.8502 18.6413 20.8502C20.2667 20.8502 21.5874 20.3931 22.3493 19.5804L20.1651 17.447Z" fill="#051244"/>
<path d="M23.1113 20.5961H25.4986L26.0066 19.0723H29.2574L29.5621 20.5961H32.0002L31.1367 16.8882L28.0891 13.9421L28.2415 14.7548C28.2415 14.7548 28.7494 17.0406 28.851 17.5485H26.7177C26.9209 17.0406 27.7336 14.8564 27.7336 14.8564C27.7336 14.8564 27.9367 14.2977 28.0891 13.9421" fill="#051244"/>
</g>
<defs>
<clipPath id="clip0_835_8262">
<rect width="32" height="32" fill="white"/>
</clipPath>
</defs>
</svg>
