<svg width="32" height="32" viewBox="0 0 32 32" fill="none" xmlns="http://www.w3.org/2000/svg">
<path d="M15.9978 5.13562C13.0441 5.13562 12.6734 5.14852 11.5133 5.20127C10.3554 5.25424 9.56509 5.43737 8.87356 5.70607C8.15823 5.98359 7.55144 6.35484 6.94691 6.95901C6.34193 7.56296 5.97033 8.16917 5.69163 8.88359C5.422 9.57469 5.23846 10.3645 5.18635 11.5208C5.13469 12.6798 5.12109 13.0503 5.12109 16.0013C5.12109 18.9522 5.13424 19.3214 5.1868 20.4804C5.24005 21.6371 5.42336 22.4267 5.69209 23.1176C5.97011 23.8322 6.3417 24.4384 6.94646 25.0424C7.55076 25.6468 8.15755 26.0189 8.87242 26.2965C9.56441 26.5652 10.355 26.7483 11.5126 26.8013C12.6727 26.854 13.0432 26.8669 15.9967 26.8669C18.9507 26.8669 19.3202 26.854 20.4803 26.8013C21.6382 26.7483 22.4294 26.5652 23.1214 26.2965C23.8365 26.0189 24.4424 25.6468 25.0467 25.0424C25.6517 24.4384 26.0233 23.8322 26.302 23.1178C26.5693 22.4267 26.7529 21.6369 26.8073 20.4806C26.8594 19.3216 26.873 18.9522 26.873 16.0013C26.873 13.0503 26.8594 12.68 26.8073 11.521C26.7529 10.3643 26.5693 9.57469 26.302 8.88381C26.0233 8.16917 25.6517 7.56296 25.0467 6.95901C24.4417 6.35461 23.8367 5.98337 23.1207 5.70607C22.4274 5.43737 21.6366 5.25424 20.4788 5.20127C19.3186 5.14852 18.9493 5.13562 15.9947 5.13562H15.9978ZM15.0222 7.0937C15.3117 7.09325 15.6348 7.0937 15.9978 7.0937C18.9017 7.0937 19.2459 7.10411 20.3927 7.15618C21.4531 7.20462 22.0286 7.38164 22.412 7.53036C22.9195 7.7273 23.2814 7.96272 23.6618 8.34302C24.0425 8.72332 24.2781 9.08551 24.4757 9.59257C24.6246 9.97513 24.802 10.5501 24.8502 11.6095C24.9024 12.7549 24.9137 13.099 24.9137 15.9988C24.9137 18.8985 24.9024 19.2426 24.8502 20.388C24.8018 21.4474 24.6246 22.0224 24.4757 22.405C24.2786 22.912 24.0425 23.2731 23.6618 23.6532C23.2812 24.0335 22.9197 24.2689 22.412 24.4658C22.029 24.6152 21.4531 24.7918 20.3927 24.8402C19.2461 24.8923 18.9017 24.9036 15.9978 24.9036C13.0937 24.9036 12.7495 24.8923 11.603 24.8402C10.5426 24.7913 9.96705 24.6143 9.58345 24.4656C9.0759 24.2687 8.71336 24.0332 8.3327 23.6529C7.95204 23.2726 7.71639 22.9114 7.51881 22.4041C7.36994 22.0215 7.19253 21.4465 7.14427 20.3871C7.09215 19.2417 7.08173 18.8976 7.08173 15.9961C7.08173 13.0945 7.09215 12.7522 7.14427 11.6068C7.19275 10.5474 7.36994 9.97241 7.51881 9.5894C7.71594 9.08234 7.95204 8.72015 8.3327 8.33985C8.71336 7.95955 9.0759 7.72413 9.58345 7.52674C9.96683 7.37734 10.5426 7.20077 11.603 7.1521C12.6063 7.10683 12.9951 7.09325 15.0222 7.09098V7.0937ZM21.8034 8.89785C21.5452 8.89785 21.2929 8.97433 21.0782 9.11762C20.8636 9.26091 20.6963 9.46458 20.5975 9.70286C20.4988 9.94114 20.473 10.2033 20.5234 10.4563C20.5737 10.7092 20.6981 10.9415 20.8807 11.1239C21.0632 11.3062 21.2958 11.4303 21.549 11.4806C21.8022 11.5309 22.0647 11.505 22.3031 11.4062C22.5416 11.3075 22.7454 11.1403 22.8888 10.9258C23.0321 10.7113 23.1086 10.4592 23.1085 10.2013C23.1085 9.48142 22.5239 8.8974 21.8034 8.8974V8.89785ZM15.9978 10.4213C12.9133 10.4213 10.4125 12.9197 10.4125 16.0013C10.4125 19.0828 12.9133 21.5801 15.9978 21.5801C19.0823 21.5801 21.5824 19.0828 21.5824 16.0013C21.5824 12.9197 19.0821 10.4213 15.9976 10.4213H15.9978ZM15.9978 12.3794C17.9999 12.3794 19.6232 14.0008 19.6232 16.0013C19.6232 18.0014 17.9999 19.6231 15.9978 19.6231C13.9955 19.6231 12.3725 18.0014 12.3725 16.0013C12.3725 14.0008 13.9955 12.3794 15.9978 12.3794Z" fill="#CF445E"/>
</svg>
