<svg width="208" height="88" viewBox="0 0 208 88" fill="none" xmlns="http://www.w3.org/2000/svg">
<path fill-rule="evenodd" clip-rule="evenodd" d="M0.907888 25.5301C0.410099 26.8382 0.594979 32.1464 0.709901 33.8648C3.41807 34.1766 15.894 33.7281 20.2148 33.8394C29.6822 34.0827 27.4674 43.4439 24.7118 45.0229C20.3098 47.5459 9.08299 45.1845 6.89947 46.8976C5.19 48.2385 5.68778 53.2054 5.68778 56.0656C5.68778 57.9698 5.46606 64.8703 5.78646 66.2046L15.523 66.2187C15.9234 64.8837 15.6454 57.0331 15.6767 54.9707C22.8393 54.1025 28.6729 55.491 33.226 50.8138C39.9234 43.9334 39.796 25.6361 22.0848 25.3887C19.0856 25.3471 2.61049 25.1762 0.907888 25.5308V25.5301Z" fill="#CF445E"/>
<path fill-rule="evenodd" clip-rule="evenodd" d="M98.3956 41.8073C98.7091 32.963 110.334 33.0126 110.319 41.8321L98.3956 41.8073ZM205.989 48.984C203.162 46.8928 201.418 50.1996 201.042 50.6468L158.78 50.7789L154.198 39.5565L153.703 40.1291C153.158 41.11 150.3 48.9505 149.328 50.618L144.114 50.5892C143.539 46.6407 143.441 41.9092 143.1 37.8367L140.649 6.22179C140.584 5.35889 140.416 0.806362 139.981 0.107056L129.878 71.6475L127.132 39.2749C126.472 40.1981 124.072 46.3612 123.57 47.8168C123.1 47.3193 122.482 46.2653 121.896 46.0541L120.7 48.6636C118.938 48.7548 117.042 48.7011 115.265 48.6978C113.506 48.6944 111.856 48.2311 110.303 48.2747C108.296 54.9982 98.9733 55.2094 98.1695 45.0819L114.203 45.0745C115.769 29.854 97.7654 27.3203 94.7861 40.1157C93.2403 46.7547 95.367 52.7991 99.739 55.0867C102.011 56.2748 105.577 56.5262 108.221 55.6606C110.283 54.9861 112.803 52.8742 113.377 50.6918L121.769 50.6831L122.343 49.6699C122.928 49.92 123.523 51.0062 124.009 51.442L124.201 51.1463C124.915 49.9167 125.144 48.3049 125.883 47.4963C126.713 49.7538 128.688 86.0627 129.541 87.8327L139.598 16.7509L142.436 52.614L150.572 52.5932L153.989 44.4624L154.377 44.9049C154.486 45.0792 154.508 45.1624 154.593 45.3555C154.77 45.7551 154.852 46.0045 155.032 46.4497C155.596 47.859 157.171 51.9871 157.736 52.7957L201.066 52.6871C201.567 54.3318 202.886 55.7813 205.12 55.1109C207.477 54.4035 208.309 50.7018 205.988 48.9847L205.989 48.984Z" fill="#252340" stroke="#252340" stroke-width="0.288" stroke-miterlimit="22.9256"/>
<path fill-rule="evenodd" clip-rule="evenodd" d="M76.9575 48.2082L73.3999 48.7111C73.3955 51.2716 75.1706 53.741 76.5796 54.6884C79.908 56.9271 87.0532 56.9338 89.8856 52.9538C91.3409 50.9089 91.8187 47.8066 90.3416 45.4881C87.9357 41.7127 79.958 41.9795 78.0224 39.7327C76.7464 38.2523 77.4503 35.4732 81.3208 35.2245C86.1051 34.916 86.1032 37.4337 86.952 38.8899L90.281 38.4803C90.4197 35.8379 88.5415 33.7078 86.684 32.8898C84.6048 31.974 81.6643 31.6367 79.1467 32.2811C73.9826 33.6026 71.8791 39.8266 75.9894 43.2561C77.5983 44.5984 80.116 45.1106 82.3782 45.7751C84.4993 46.3986 87.812 46.7365 87.4073 49.7966C86.8702 53.855 77.7969 54.8479 76.9569 48.2082H76.9575Z" fill="#252340" stroke="#252340" stroke-width="0.288" stroke-miterlimit="22.9256"/>
<path fill-rule="evenodd" clip-rule="evenodd" d="M42.3147 32.507C41.9693 34.9046 42.2566 40.375 42.2566 43.1019C42.2566 46.3818 41.8994 50.2324 43.2041 52.75C45.0822 56.3733 50.6759 57.1892 54.0049 54.8909C55.3072 53.9917 55.5133 53.2348 56.4914 52.4979L56.5176 55.6565L59.7354 55.6693C59.8778 53.041 60.0002 33.8292 59.6267 32.4742L56.2047 32.4554C54.8893 39.5182 59.1071 52.0246 50.9451 52.7547C42.7887 53.4842 47.252 40.4998 45.8404 32.4668L42.3141 32.507H42.3147Z" fill="#252340" stroke="#252340" stroke-width="0.288" stroke-miterlimit="22.9256"/>
<path fill-rule="evenodd" clip-rule="evenodd" d="M65.4646 55.6646L69.0866 55.6297L69.0585 23.6621L65.4309 23.6702L65.4646 55.6646Z" fill="#252340" stroke="#252340" stroke-width="0.288" stroke-miterlimit="22.9256"/>
<path fill-rule="evenodd" clip-rule="evenodd" d="M86.9526 67.2632C87.5603 66.9943 87.3842 67.4884 87.4148 66.1448C87.431 65.4448 87.3442 65.3677 87.4635 64.6027C88.659 66.5216 88.4959 67.2893 89.8363 67.2102C89.8369 66.4009 89.8326 65.5849 89.8444 64.7764C89.8675 63.1069 89.9718 62.8467 89.4509 62.8387C88.8582 63.0747 89.0599 62.7871 89.015 63.8571C88.995 64.3312 89.0306 64.9634 89.0268 65.4622C87.9919 64.4867 88.1231 62.7274 86.6478 62.897C86.5604 63.6982 86.5997 64.4237 86.5916 65.2296C86.5891 65.4891 86.5516 66.3828 86.5785 66.5726C86.709 67.5052 86.3892 66.9031 86.9526 67.2625V67.2632Z" fill="#252340" stroke="#252340" stroke-width="0.288" stroke-miterlimit="22.9256"/>
<path fill-rule="evenodd" clip-rule="evenodd" d="M70.2971 67.2645C71.3788 66.7992 70.4488 67.1726 70.8173 64.6329C72.044 66.716 71.9572 67.2685 73.1982 67.2202C73.1982 66.4063 73.1901 65.5916 73.2039 64.7777C73.2432 62.4283 73.242 63.1686 72.7954 62.8394C72.0446 63.3979 72.4337 63.1075 72.385 65.4743C71.1933 64.3285 71.4888 62.6939 69.9991 62.9037C69.9155 63.6748 69.9548 64.4472 69.9492 65.2309C69.9311 67.5816 69.8674 66.9648 70.2971 67.2645Z" fill="#252340" stroke="#252340" stroke-width="0.288" stroke-miterlimit="22.9256"/>
<path fill-rule="evenodd" clip-rule="evenodd" d="M57.5894 64.7257C56.6026 64.6539 57.0248 64.7109 56.9424 63.8876C58.3502 62.902 58.51 64.1088 58.5113 64.1108C58.3645 64.4199 58.5619 64.7961 57.5894 64.7257ZM58.4938 65.3512C59.2264 64.9576 59.8797 64.0733 59.0665 63.2144C58.5113 62.6277 57.0948 62.8456 56.1904 62.8181C55.9992 63.675 56.0792 64.3442 56.0686 65.2299C56.0442 67.3284 55.9943 67.0334 56.5557 67.2587C57.1385 66.8953 56.7918 67.5081 56.9349 66.5728C56.9586 66.4193 56.9255 65.6663 56.9249 65.4518C58.8935 65.7086 57.5494 67.3331 59.658 67.2171C59.4001 66.5044 59.0722 65.9633 58.4926 65.3505L58.4938 65.3512Z" fill="#252340" stroke="#252340" stroke-width="0.288" stroke-miterlimit="22.9256"/>
<path fill-rule="evenodd" clip-rule="evenodd" d="M68.3664 66.0934C66.4546 67.2768 65.8506 65.4551 66.76 63.622L68.1566 63.7373C68.6469 64.7437 68.6088 64.8671 68.3664 66.0934ZM65.5215 65.675C65.9275 68.1544 70.0534 67.9265 69.3039 64.334C68.7986 61.9109 64.9587 62.2368 65.5215 65.675Z" fill="#252340" stroke="#252340" stroke-width="0.288" stroke-miterlimit="22.9256"/>
<path fill-rule="evenodd" clip-rule="evenodd" d="M50.2157 63.6348C50.8253 64.7296 50.979 67.14 49.0934 66.3971C48.47 66.1517 48.3276 65.1728 48.525 64.4071C48.7267 63.624 49.2882 63.5509 50.2157 63.6348ZM51.4512 65.675C52.21 62.4607 48.2976 61.8285 47.6943 64.2154C46.8536 67.5396 50.7903 68.4756 51.4512 65.675Z" fill="#252340" stroke="#252340" stroke-width="0.288" stroke-miterlimit="22.9256"/>
<path fill-rule="evenodd" clip-rule="evenodd" d="M79.7068 63.6474C81.5524 63.5153 81.6742 64.4285 81.2414 66.3192L79.7249 66.4781L79.7074 63.6474H79.7068ZM78.8855 67.1734C80.8148 67.4268 82.3044 67.3303 82.2682 65.0031C82.2332 62.7415 80.8941 62.767 78.8974 62.8703L78.8855 67.1734Z" fill="#252340" stroke="#252340" stroke-width="0.288" stroke-miterlimit="22.9256"/>
<path fill-rule="evenodd" clip-rule="evenodd" d="M95.4416 64.1106C95.8188 63.6587 94.837 63.719 96.5277 63.6057C97.5583 63.5366 97.2097 63.947 97.602 63.2168C97.191 62.535 96.4715 62.8447 94.649 62.8474L94.6252 67.2451C95.1936 67.2404 95.7651 67.2544 96.3297 67.2497C96.5795 67.2477 96.9081 67.2444 97.1498 67.2028C97.8306 67.0861 97.4877 67.123 97.6913 67.0157C97.3515 66.3392 98.3933 66.5189 95.4784 66.4968L95.5427 65.3074C95.7389 65.306 96.6482 65.3389 96.7519 65.3161C97.4396 65.1659 97.1779 65.4133 97.439 64.7811C97.1904 64.6396 97.4308 64.6993 96.9218 64.6094C95.0343 64.2775 95.8457 64.9795 95.4416 64.1106Z" fill="#252340" stroke="#252340" stroke-width="0.288" stroke-miterlimit="22.9256"/>
<path fill-rule="evenodd" clip-rule="evenodd" d="M83.7013 64.3347C83.8218 63.512 83.5021 63.6434 84.65 63.5945C85.3533 63.565 85.3021 63.7547 85.8805 63.4403C85.7281 62.8134 86.036 63.1332 85.4895 62.8931L82.9068 62.8677L82.8918 67.2452C83.7594 67.2365 85.2665 67.4155 85.971 67.0166C85.4951 65.9177 85.768 66.7973 83.7263 66.4192L83.7294 65.3786C86.4263 64.9408 85.3727 65.7983 85.7443 64.7812C84.8262 64.2522 84.4595 64.9126 83.7007 64.334L83.7013 64.3347Z" fill="#252340" stroke="#252340" stroke-width="0.288" stroke-miterlimit="22.9256"/>
<path fill-rule="evenodd" clip-rule="evenodd" d="M52.3242 66.6309C52.8495 67.3771 54.2492 67.6862 54.9599 66.8542C55.5333 66.183 55.6439 61.9081 54.662 62.9332C53.832 63.7988 55.6176 67.0332 53.1612 66.413C52.3786 64.5162 53.5122 63.4542 52.3929 62.8641C51.8445 63.6741 51.9895 65.8216 52.3249 66.6309H52.3242Z" fill="#252340" stroke="#252340" stroke-width="0.288" stroke-miterlimit="22.9256"/>
<path fill-rule="evenodd" clip-rule="evenodd" d="M64.9474 65.8076C63.1917 65.7989 64.677 65.8593 63.6845 66.4091C63.2861 66.6296 63.0025 66.6189 62.6702 66.2723C62.1218 65.701 62.3923 64.3903 62.6559 63.7533C64.5877 63.2062 63.2898 64.179 64.8869 64.1341C64.7307 62.24 62.5191 62.6189 61.8814 63.5689C60.7284 65.2853 62.0613 66.6766 62.5128 67.2337C63.9931 67.3309 64.6451 67.3343 64.9474 65.8083V65.8076Z" fill="#252340" stroke="#252340" stroke-width="0.288" stroke-miterlimit="22.9256"/>
<path fill-rule="evenodd" clip-rule="evenodd" d="M91.8155 66.4484C91.194 65.6103 91.066 64.7052 91.7405 63.7196C93.6336 63.2738 92.2021 64.1903 93.8547 64.1206C93.6449 62.1661 91.1272 62.4792 90.6257 64.0274C89.6101 67.1638 93.4213 68.6416 93.8978 65.8142C92.3401 65.8249 93.3663 66.8085 91.8149 66.4484H91.8155Z" fill="#252340" stroke="#252340" stroke-width="0.288" stroke-miterlimit="22.9256"/>
<path fill-rule="evenodd" clip-rule="evenodd" d="M74.8121 64.1107C75.2974 63.5274 74.2287 63.7681 75.9213 63.6239C76.9394 63.5367 76.4441 63.8472 76.7607 63.2162C76.3766 62.5337 74.7621 62.7556 73.9526 62.928L74.0463 67.2364L74.8046 67.158V65.4127C75.9182 65.408 76.3766 65.7714 76.4778 64.7805C75.857 64.4285 76.0418 64.7389 75.4947 64.6196C74.8352 64.4754 75.0588 64.696 74.8114 64.11L74.8121 64.1107Z" fill="#252340" stroke="#252340" stroke-width="0.288" stroke-miterlimit="22.9256"/>
<path fill-rule="evenodd" clip-rule="evenodd" d="M43.8118 62.8991C44.1191 63.9155 44.4976 64.1013 44.9067 64.9829C45.2664 65.7593 45.0459 65.4999 45.1059 66.3594C45.1965 67.6689 44.9404 66.9655 45.5225 67.2418C46.1808 66.9541 45.8866 67.4047 45.9566 66.1314C46.0578 64.2789 46.6142 64.885 47.2719 62.8823C45.6599 62.9453 46.6348 63.2498 45.5225 64.3708C44.3314 62.7764 45.2889 62.881 43.8124 62.8984L43.8118 62.8991Z" fill="#252340" stroke="#252340" stroke-width="0.288" stroke-miterlimit="22.9256"/>
<path fill-rule="evenodd" clip-rule="evenodd" d="M77.3254 67.2526L78.1592 67.1789L78.0974 62.8644L77.3523 62.8476L77.3254 67.2526Z" fill="#252340" stroke="#252340" stroke-width="0.288" stroke-miterlimit="22.9256"/>
<path fill-rule="evenodd" clip-rule="evenodd" d="M100.531 66.4997C99.8702 65.7649 99.8496 66.8242 99.8228 67.2647C100.216 67.2346 101.129 67.1655 100.531 66.4997Z" fill="#252340" stroke="#252340" stroke-width="0.288" stroke-miterlimit="22.9256"/>
<path fill-rule="evenodd" clip-rule="evenodd" d="M102.2 67.0159C102.02 66.092 102.411 66.446 101.526 66.4025C101.204 67.0005 101.375 66.8792 101.526 67.2151C101.623 67.2131 101.703 67.3887 102.2 67.0159Z" fill="#252340" stroke="#252340" stroke-width="0.288" stroke-miterlimit="22.9256"/>
</svg>
