<svg width="20" height="20" viewBox="0 0 20 20" fill="none" xmlns="http://www.w3.org/2000/svg">
<path fill-rule="evenodd" clip-rule="evenodd" d="M11.9633 1.67323C11.7774 1.64659 11.5907 1.70155 11.4421 1.8198C11.2894 1.93972 11.194 2.11293 11.1732 2.30697C11.1292 2.6992 11.4122 3.05395 11.8039 3.09809C14.5053 3.39955 16.605 5.50394 16.9088 8.21374C16.9494 8.57683 17.254 8.8508 17.6175 8.8508C17.6449 8.8508 17.6715 8.84914 17.6989 8.84581C17.8889 8.82499 18.0582 8.73089 18.1777 8.58099C18.2964 8.43109 18.3503 8.24455 18.3288 8.05385C17.9503 4.67284 15.3336 2.04881 11.9633 1.67323ZM12.0152 4.57491C11.6185 4.50163 11.2541 4.75478 11.1786 5.14202C11.1031 5.52925 11.357 5.90733 11.7429 5.98311C12.9048 6.20962 13.802 7.109 14.0294 8.27487V8.2757C14.0941 8.6113 14.3896 8.8553 14.7298 8.8553C14.7755 8.8553 14.8211 8.85114 14.8676 8.84281C15.2535 8.76536 15.5075 8.38812 15.4319 8.00006C15.0925 6.25875 13.7522 4.91384 12.0152 4.57491ZM13.3335 12.5754C13.7097 12.3585 14.1346 12.1135 14.6706 12.2275C15.1561 12.3299 16.811 13.6732 17.2641 14.1387C17.5613 14.4435 17.7264 14.7582 17.7521 15.073C17.7969 16.308 16.1189 17.7179 15.8134 17.8936C15.4076 18.1859 14.9354 18.3333 14.4051 18.3333C13.8631 18.3333 13.259 18.1792 12.6 17.8719C9.02471 16.3796 3.56302 11.0258 2.11897 7.47825C1.51976 6.15749 1.51561 5.06824 2.10901 4.24963C2.34553 3.86573 3.69415 2.261 4.90168 2.3118C5.22286 2.33928 5.53491 2.50416 5.84115 2.80396C6.30424 3.25781 7.61385 4.91751 7.7151 5.40467C7.82714 5.94597 7.58149 6.3765 7.36322 6.75458C7.31666 6.83585 7.25394 6.9323 7.18522 7.03796C6.92441 7.43899 6.57728 7.97275 6.70011 8.31351C7.58066 10.4754 9.61479 12.3616 11.7776 13.2476C12.112 13.3692 12.6455 13.0196 13.0452 12.7576C13.1494 12.6893 13.2444 12.627 13.3245 12.5806L13.3335 12.5754Z" fill="#CF445E"/>
</svg>
